<?xml version="1.0" encoding="UTF-8"?>
<svg xmlns="http://www.w3.org/2000/svg" xmlns:xlink="http://www.w3.org/1999/xlink" viewBox="0 0 16 16" width="16px" height="16px">
<g id="surface35865595">
<path style=" stroke:none;fill-rule:nonzero;fill:rgb(100%,100%,100%);fill-opacity:1;" d="M 9.230469 0 L 0 1.769531 L 0 14.230469 L 9.230469 16 Z M 9.847656 1.847656 L 9.847656 3.671875 L 11.710938 3.671875 L 11.710938 4.921875 L 9.847656 4.921875 L 9.847656 6.152344 L 11.691406 6.152344 L 11.691406 7.382812 L 9.847656 7.382812 L 9.847656 8.617188 L 11.691406 8.617188 L 11.691406 9.847656 L 9.847656 9.847656 L 9.847656 11.078125 L 11.691406 11.078125 L 11.691406 12.308594 L 9.847656 12.308594 L 9.847656 14.152344 L 15.480469 14.152344 C 15.765625 14.152344 16 13.910156 16 13.617188 L 16 2.382812 C 16 2.089844 15.765625 1.847656 15.480469 1.847656 Z M 12.308594 3.691406 L 14.769531 3.691406 L 14.769531 4.921875 L 12.308594 4.921875 Z M 1.902344 4.882812 L 3.597656 4.882812 L 4.5 6.769531 C 4.570312 6.914062 4.636719 7.085938 4.691406 7.289062 C 4.726562 7.164062 4.808594 6.992188 4.902344 6.75 L 5.882812 4.882812 L 7.441406 4.882812 L 5.578125 7.980469 L 7.5 11.132812 L 5.847656 11.132812 L 4.769531 9.097656 C 4.726562 9.023438 4.679688 8.875 4.632812 8.671875 L 4.617188 8.671875 C 4.597656 8.769531 4.554688 8.921875 4.480469 9.117188 L 3.402344 11.132812 L 1.730469 11.132812 L 3.710938 8.019531 Z M 12.308594 6.152344 L 14.769531 6.152344 L 14.769531 7.382812 L 12.308594 7.382812 Z M 12.308594 8.617188 L 14.769531 8.617188 L 14.769531 9.847656 L 12.308594 9.847656 Z M 12.308594 11.078125 L 14.769531 11.078125 L 14.769531 12.308594 L 12.308594 12.308594 Z M 12.308594 11.078125 "/>
</g>
</svg>
